<?xml version="1.0" standalone="no"?>
<!DOCTYPE svg PUBLIC "-//W3C//DTD SVG 20010904//EN"
 "http://www.w3.org/TR/2001/REC-SVG-20010904/DTD/svg10.dtd">
<svg version="1.0" xmlns="http://www.w3.org/2000/svg"
 width="1024.000000pt" height="1024.000000pt" viewBox="0 0 1024.000000 1024.000000"
 preserveAspectRatio="xMidYMid meet">
<metadata>
Created by potrace 1.11, written by Peter Selinger 2001-2013
</metadata>
<g transform="translate(0.000000,1024.000000) scale(0.100000,-0.100000)"
fill="#000000" stroke="none">
<path d="M0 5120 l0 -5120 5120 0 5120 0 0 5120 0 5120 -5120 0 -5120 0 0
-5120z m9440 0 l0 -4320 -4320 0 -4320 0 0 4320 0 4320 4320 0 4320 0 0 -4320z"/>
<path d="M2888 6604 c-5 -4 -8 -648 -8 -1431 l0 -1423 503 0 c292 0 550 5 613
11 295 30 549 140 742 323 267 254 394 605 395 1096 1 486 -119 845 -365 1088
-174 171 -385 273 -660 318 -85 14 -202 17 -658 21 -305 3 -558 1 -562 -3z
m1161 -169 c139 -20 307 -74 412 -133 113 -63 256 -205 318 -316 73 -130 131
-302 161 -476 6 -36 14 -149 17 -251 11 -344 -32 -574 -150 -801 -166 -322
-448 -504 -845 -547 -57 -6 -279 -11 -502 -11 l-400 0 0 1275 0 1275 441 0
c342 0 465 -3 548 -15z"/>
<path d="M5220 6605 c0 -3 257 -378 570 -835 l570 -830 0 -595 0 -595 85 0 85
0 0 598 1 597 569 823 c314 453 570 828 570 833 0 5 -40 9 -90 9 l-90 0 -42
-59 c-24 -32 -257 -372 -518 -755 -261 -382 -478 -694 -482 -693 -4 1 -229
326 -499 722 -270 396 -502 735 -515 753 l-25 32 -95 0 c-51 0 -94 -2 -94 -5z"/>
</g>
</svg>
