<svg version="1" xmlns="http://www.w3.org/2000/svg" width="1365.333" height="1365.333" viewBox="0 0 1024.000000 1024.000000"><path d="M0 512v512h1024V0H0v512zm944 0v432H80V80h864v432z"/><path d="M288.8 363.6c-.5.4-.8 64.8-.8 143.1V649h50.3c29.2 0 55-.5 61.3-1.1 29.5-3 54.9-14 74.2-32.3 26.7-25.4 39.4-60.5 39.5-109.6.1-48.6-11.9-84.5-36.5-108.8-17.4-17.1-38.5-27.3-66-31.8-8.5-1.4-20.2-1.7-65.8-2.1-30.5-.3-55.8-.1-56.2.3zm116.1 16.9c13.9 2 30.7 7.4 41.2 13.3 11.3 6.3 25.6 20.5 31.8 31.6 7.3 13 13.1 30.2 16.1 47.6.6 3.6 1.4 14.9 1.7 25.1 1.1 34.4-3.2 57.4-15 80.1-16.6 32.2-44.8 50.4-84.5 54.7-5.7.6-27.9 1.1-50.2 1.1h-40V379h44.1c34.2 0 46.5.3 54.8 1.5zM522 363.5c0 .3 25.7 37.8 57 83.5l57 83v119h17v-59.8l.1-59.7 56.9-82.3c31.4-45.3 57-82.8 57-83.3s-4-.9-9-.9h-9l-4.2 5.9c-2.4 3.2-25.7 37.2-51.8 75.5-26.1 38.2-47.8 69.4-48.2 69.3-.4-.1-22.9-32.6-49.9-72.2s-50.2-73.5-51.5-75.3l-2.5-3.2h-9.5c-5.1 0-9.4.2-9.4.5z"/></svg>