<?xml version="1.0" standalone="no"?>
<!DOCTYPE svg PUBLIC "-//W3C//DTD SVG 20010904//EN"
 "http://www.w3.org/TR/2001/REC-SVG-20010904/DTD/svg10.dtd">
<svg version="1.0" xmlns="http://www.w3.org/2000/svg"
 width="800.000000pt" height="800.000000pt" viewBox="0 0 800.000000 800.000000"
 preserveAspectRatio="xMidYMid meet">
<metadata>
Created by potrace 1.11, written by Peter Selinger 2001-2013
</metadata>
<g transform="translate(0.000000,800.000000) scale(0.100000,-0.100000)"
fill="#000000" stroke="none">
<path d="M1237 7984 c-543 -117 -1003 -532 -1176 -1061 -66 -201 -61 28 -61
-2923 0 -2951 -5 -2722 61 -2923 155 -474 542 -861 1016 -1016 201 -66 -28
-61 2923 -61 2951 0 2722 -5 2923 61 474 155 861 542 1016 1016 66 201 61 -28
61 2923 0 2951 5 2722 -61 2923 -155 474 -542 861 -1016 1016 -201 66 30 61
-2930 60 -2309 -1 -2698 -3 -2756 -15z m1723 -2556 c363 -74 623 -275 793
-613 107 -214 157 -455 157 -760 0 -328 -57 -587 -186 -850 -163 -333 -392
-518 -739 -598 -85 -20 -125 -21 -767 -24 l-678 -4 0 1436 0 1436 673 -4 c551
-3 685 -7 747 -19z m1797 -165 c451 -758 704 -1178 711 -1181 4 -1 192 306
417 683 l409 685 229 0 c182 0 227 -3 220 -12 -6 -7 -151 -236 -323 -508 -172
-272 -408 -646 -525 -830 -117 -184 -217 -345 -224 -357 -8 -16 -11 -182 -11
-592 l0 -571 -190 0 -190 0 0 575 0 575 -536 847 c-295 467 -539 854 -541 861
-4 9 44 12 219 12 l224 0 111 -187z"/>
<path d="M1943 5113 c-10 -4 -13 -234 -13 -1105 l0 -1100 438 5 c495 5 526 9
672 80 69 33 101 58 175 132 103 103 158 191 209 336 127 355 119 854 -18
1171 -53 123 -95 186 -176 268 -130 131 -285 192 -529 210 -138 10 -736 13
-758 3z"/>
</g>
</svg>
