<svg version="1" xmlns="http://www.w3.org/2000/svg" width="1365.333" height="1365.333" viewBox="0 0 1024.000000 1024.000000"><path d="M0 512v512h1024V0H0v512zm944 0v432H80V80h864v432z"/><path d="M288 505.9V649h54.3c41.6 0 56.5-.4 64.2-1.5 49.6-7.1 86.3-38.6 100-86 5.7-19.7 7-30 6.9-56 0-20.4-.3-25.9-2.2-36.7-3.1-17.1-6.4-28.3-12.1-40.3-16.2-34.1-44.8-55.4-85.1-63.1-7.1-1.4-18.3-1.7-67.2-2.1l-58.8-.5v143.1zm121.3-124.5c41.3 8 65.4 28.5 78.1 66.7 10.9 32.6 11 82.2.2 113.6-10.8 31.5-33.1 54.6-62.6 64.6-17.3 5.9-18.6 6-70.7 6.4l-48.3.4V378.8l47.3.5c39 .3 48.7.7 56 2.1zM524.8 368.7c2.2 3.2 27.8 40.6 57.1 83.2l53.1 77.4V649h19V528.9l57-82.4c31.4-45.3 57-82.7 57-83 0-.3-4.5-.5-9.9-.5h-9.9l-51.4 75c-28.2 41.2-51.6 75-52 75-.4 0-23.7-33.8-51.8-75l-51.2-75h-20.9l3.9 5.7z"/></svg>